<?xml version="1.0" encoding="utf-8"?>
<!-- Generator: Adobe Illustrator 15.0.0, SVG Export Plug-In . SVG Version: 6.00 Build 0)  -->
<!DOCTYPE svg PUBLIC "-//W3C//DTD SVG 1.1//EN" "http://www.w3.org/Graphics/SVG/1.1/DTD/svg11.dtd">
<svg version="1.1" id="圖層_1" xmlns="http://www.w3.org/2000/svg" xmlns:xlink="http://www.w3.org/1999/xlink" x="0px" y="0px"
	 width="200px" height="200px" viewBox="0 0 200 200" enable-background="new 0 0 200 200" xml:space="preserve">
<g>
	<path fill="#455FAC" d="M124.832,26.286c3.219-1.585,8.854-4.038,11.498,0.648c-0.985,0.442-2.312,0.526-1.954,2.293
		c1.048,0.72,3.686,0.889,5.567,2.319c2.676-2.252,7.724-2.634,10.858-1.647c0.713,2.869-3.002,4.091-4.934,3.947
		c0.721,6.283,8.765,3.861,9.521,10.518c-2.294,0.83-4.684-2.081-6.887-2.626c-2.833-0.733-5.993,1.495-8.226-1.326
		c0.072-2.324,2.232-2.015,3.613-1.954c-0.418-1.773-1.526-2.881-3.282-3.299c-1.712,3.25-7.952,5.477-8.544-0.339
		c1.773-1.04,2.96-0.998,4.914-1.307c-4.303-5.011-9.896,1.615-15.1,0c-1.477-1.108-0.999-3.976,0-5.253
		c-1.465-0.533-7.958,0.375-10.187-2.627c2.197-0.333,3.449-1.313,5.913-1.313c0.98-0.454,0.574-2.282,0.661-3.625
		C121.577,16.523,123.918,22.479,124.832,26.286z"/>
	<path fill="#455FAC" d="M158.996,23.653c2.693,2.886,5.325,7.687,8.219,10.519c2.143,2.087,5.453,2.936,7.232,5.265
		c5.871,7.613-3.412,20.541,2.948,29.232c4.267-2.65,7.456-6.35,10.186-10.507c2.166,6.833,6.791,15.203,5.913,23.634
		c-0.755,7.432-6.529,11.221-10.84,15.444c-0.187,2.621,0.581,4.25,0.333,6.918c5.199-2.917,9.442-6.797,14.461-9.86
		c-2.379,7.657-1.665,17.484-4.601,23.325c-2.433,4.83-6.119,8.146-11.172,10.513c-1.389,0.629-3.505,0.836-4.928,1.967
		c-2.649,2.101-1.989,6.814-3.945,9.188c4.065-1.507,11.312-2.701,17.411-3.275c-4.004,1.589-3.873,5.406-6.232,8.873
		c-3.88,5.616-11.087,7.585-13.147,14.772c-5.259,0.569-10.868,0.735-16.758,0.678c-3.43,2.803-6.378,6.106-11.171,7.547
		c2.116,3.802,8.646,6.041,13.465,8.209c-11.063,0.32-22.756,9.13-33.178,1.316c-1.508,0.134-3.612-0.331-4.595,0.328
		c-1.507,4.479-12.12,12.061-13.81,2.967c3.837-2.187,8.914-3.148,12.171-5.926c-1.516-13.436,11.527-14.089,19.705-16.746
		c-0.284,2.553-0.97,4.728-1.641,6.899c3.231-0.622,7.341-1.82,8.867-4.932c1.675-3.42,1.638-7.287,3.606-10.52
		c3.607-5.878,10.954-8.83,14.472-15.767c1.488,2.235,1.628,5.824,1.628,9.526c5.38-2.057,5.203-9.131,4.613-16.745
		c-0.812-10.297,2.523-19.96,5.58-26.624c1.62,2.772,2.977,5.792,3.946,9.205c2.503-17.927-14.399-22.508-10.52-40.749
		c2.807-0.061,3.638,1.863,5.247,2.966c0.109-3.402-1.26-5.296-2.627-7.226c-12.91,1.707-16.238-6.077-21.999-12.165
		c-3.342-3.523-6.742-6.07-10.187-9.205c7.576-0.249,13.617,1.059,18.387,3.631C155.904,37.64,156.177,29.373,158.996,23.653z"/>
	<path fill="#455FAC" d="M96.573,38.105c20.197-1.652,35.931,6.089,46.331,15.452c10.215,9.169,19.349,22.374,20.691,41.052
		c1.998,27.306-11.308,46.074-26.616,56.841c-15.906,11.227-44.194,15.009-65.026,3.625c-18.417-10.046-30.478-27.713-32.215-51.255
		c-0.951-12.904,2.911-25.939,7.231-33.838c4.268-7.813,11.614-16.244,19.711-21.671C74.29,43.195,83.144,39.219,96.573,38.105z
		 M72.927,46.977c-6.742,3.638-11.972,8.237-16.431,13.152c-8.57,9.411-16.48,23.954-15.112,44.342
		c1.199,17.788,9.345,30.486,19.385,39.769c10.797,9.95,24.323,16.608,43.036,16.099c32.109-0.9,58.082-26.609,58.163-60.465
		c0.02-9.484-2.228-17.86-5.931-25.619c-9.406-19.797-29.118-36.7-59.791-34.164C87.072,40.841,79.392,43.498,72.927,46.977z"/>
	<path fill="#455FAC" d="M100.525,49.29c-0.472,9.926,0,20.796-0.666,30.545c1.211,0,2.422,0,3.62,0
		c0.659-10.433,0.206-20.377,0.659-30.545c27.514,2.487,47.85,20.692,49.272,49.271c1.077,21.284-9.689,35.459-22.34,44.363
		c-3.146-1.356-6.21-5.611-8.854-8.54c10.112-6.733,19.16-15.355,20.353-30.225c1.652-20.316-12.928-37.428-28.91-42.07
		c-0.916,25.273-0.552,46.022-1.307,69.982c-3.058,0-6.133,0-9.201,0c-0.23-5.575,0.443-12.057-0.326-17.086
		c-0.543-0.55-1.938-0.247-2.966-0.325c-1.028,4.81-0.527,10.736-0.641,17.079c-3.178,0-6.355,0-9.551,0
		c0.551-23.456,0.842-45.76,1.005-69.981C75.13,66.217,60.26,80.779,60.443,101.521c0.132,15.462,9.356,25.188,19.379,32.196
		c-2.404,3.396-5.49,6.125-8.879,8.54c-11.178-9.175-19.748-19.078-21.013-36.472C47.66,74.588,67.051,54.199,95.92,49.604
		C96.779,49.472,98.788,49.066,100.525,49.29z M51.909,96.254c-1.336,19.79,6.494,34.534,19.368,43.375
		c2.004-1.724,3.872-3.581,5.598-5.579c-9.883-7.177-18.483-18.363-18.417-33.189c0.146-20.94,16.167-38.104,34.189-41.742
		c-0.146,6.7,0.321,15.258-0.326,20.378c1.379,0.702,3.988,0.176,5.906,0.338c-0.284-7.48,0.289-16.02,0.332-22.671
		c0-1.919,0.843-4.824-0.992-5.913C72.801,54.791,53.658,70.104,51.909,96.254z M149.482,86.075
		c-5.079-18.483-22.086-32.264-43.049-34.491c-1.362,8.273-0.321,18.93-0.647,28.251c2.945-0.139,4.168,0.588,5.573,0
		c0.362-6.651-0.75-14.778,0.665-20.377c16.788,4.128,31.224,19.652,32.524,39.436c1.198,18.187-9.205,27.9-19.057,35.805
		c1.529,2.311,3.404,4.272,5.579,5.925C146.433,130.401,155.712,108.765,149.482,86.075z M92.319,81.796
		c0.218,10.633-0.302,20.536-0.333,30.896c1.858,0,3.722,0,5.58,0c0.03-10.36,0.533-20.263,0.327-30.896
		C96.041,81.796,94.165,81.796,92.319,81.796z M99.86,81.796c0.259,10.67-0.448,20.367-0.321,30.896c1.206,0,2.41,0,3.613,0
		c0.612-8.544,0.231-21.896,0.326-30.896C102.282,81.796,101.071,81.796,99.86,81.796z M105.459,82.776
		c-0.037,10.065,0.164,20.335-0.34,29.916c1.404,0.568,3.705,0.246,5.587,0.324c0.605-9.259-0.024-20.83,0.653-30.882
		C109.925,82.056,105.822,80.847,105.459,82.776z M91.987,114.658c0.212,5.375-0.321,9.975-0.333,15.112c1.858,0,3.723,0,5.575,0
		c-0.146-5.306,0.593-9.701,0.339-15.112C95.708,114.658,93.844,114.658,91.987,114.658z M105.119,114.985c0,4.934,0,9.866,0,14.785
		c0.812,0.141,4.04,0.75,5.587,0c0-4.919,0-9.854,0-14.785C108.841,114.985,106.977,114.985,105.119,114.985z"/>
	<path fill="#455FAC" d="M86.073,72.924c0.212,0,0.423,0,0.653,0c-0.617,16.656-0.375,36.536-0.98,54.216
		C64.576,121.866,64.703,77.917,86.073,72.924z M83.774,75.896c-14.829,7.384-15.929,35.393-3.292,45.983
		c0.816,0.696,1.997,2.319,3.292,1.646c0.775-15.414,0.298-32.118,0.968-47.63c-0.207,0-0.424,0-0.642,0
		C83.992,75.896,83.869,75.896,83.774,75.896z"/>
	<path fill="#455FAC" d="M117.273,73.263c21.992,5.87,20.692,48.423-0.314,54.548C116.171,109.66,117.377,91.05,117.273,73.263z
		 M118.598,124.512c16.566-5.429,17.067-42.262,0.653-48.29C118.828,92.86,118.598,107.712,118.598,124.512z"/>
	<path fill="#455FAC" d="M99.219,139.292c0,3.843,0,7.667,0,11.511c-8.268,0.599-13.484-1.858-18.737-4.267
		c2.196-3.189,5.187-5.55,7.559-8.534C91.351,138.838,94.765,139.581,99.219,139.292z M88.379,140.291
		c-1.186,2.221-3.517,3.279-4.606,5.579c3.855,1.617,7.802,3.16,13.454,2.96c0-2.51,0-5.028,0-7.553
		C93.687,141.543,91.43,140.515,88.379,140.291z"/>
	<path fill="#455FAC" d="M121.225,147.185c-5.054,2.201-11.21,4.587-18.399,3.618c-0.071-2.638,0.056-7.807,0-11.511
		c2.826,0.43,7.771-0.072,11.167-0.976C116.371,141.327,119.277,143.781,121.225,147.185z M113.005,140.623
		c-2.638,0.43-5.313,0.798-8.219,0.968c-0.061,3.026,0.151,5.272-0.309,7.238c4.896,0.612,9.442-1.021,13.465-2.293
		C117.473,144.647,114.863,142.181,113.005,140.623z"/>
	<path fill="#455FAC" d="M116.619,166.241c-3.231,3.008-7.069,5.418-12.813,5.92C102.45,165.37,111.11,163.614,116.619,166.241z"/>
	<path fill="#455FAC" d="M115.312,172.814c-6.99,1.895-12.807,4.944-18.738,7.893c1.114,0.755,3.619,0.108,5.271,0.32
		c0.389,6.379-7.789,6.367-12.177,4.259c-2.911,1.878-9.907,2.15-12.151,0.994c-0.461-0.994,0.157-1.762,0.338-2.96
		C90.455,179.95,100,173.504,115.312,172.814z"/>
	<path fill="#455FAC" d="M52.229,27.266c-0.103,3.262,3.935,3.807,5.248,4.605c0.018,2.301-2.058,2.543-2.954,3.935
		c-4.327,0.345-7.921,4.036-10.18,8.873c5.163-1.666,8.376-5.75,12.806-5.592c2.149,0.091,3.868,1.137,5.587-0.629
		c0-0.57,0-1.108,0-1.671c-1.447-1.21-2.646-0.175-3.608-1.296c1.331-1.222,2.402-2.844,4.266-2.65
		c0.497,4.242,6.161,4.52,7.881,1.332c0.14-0.793-0.593-0.703-0.334-1.647c-1.566-0.919-3.891-1.162-4.587-1.312
		c4.563-5.018,9.006,2.959,15.446,0.333c1.047-1.624,0.496-3.783-0.333-5.26c1.967,0.424,7.88,0.109,10.852-1.967
		c-2.827-1.284-4.37-0.927-6.905-1.979c-0.024-9.327-6.651-2.494-6.899,2.3c-3.075-1.943-9.278-4.552-11.5,0
		c0.986,0.442,2.209,0.623,2.299,1.985c-0.386,0.055-0.199,0.339,0,0.642c-1.089,0.472-1.646,0.817-1.646,0
		C62.984,31.031,57.852,24.821,52.229,27.266z"/>
	<path fill="#455FAC" d="M118.266,20.694c-0.087,1.344,0.32,3.171-0.661,3.625c-2.462,0-3.716,0.98-5.913,1.313
		c2.229,3.001,8.722,2.094,10.187,2.627c-0.999,1.277-1.477,4.146,0,5.253c5.203,1.615,10.795-5.011,15.1,0
		c-1.954,0.309-3.142,0.267-4.914,1.307c0.592,5.816,6.832,3.589,8.544,0.339c1.757,0.418,2.864,1.526,3.282,3.299
		c-1.381-0.061-3.541-0.37-3.613,1.955c2.232,2.82,5.393,0.593,8.226,1.326c2.201,0.545,4.594,3.456,6.887,2.626
		c-0.756-6.657-8.8-4.235-9.52-10.518c1.931,0.145,5.646-1.078,4.933-3.947c-3.135-0.987-8.183-0.605-10.858,1.647
		c-1.882-1.429-4.52-1.598-5.567-2.319c-0.357-1.767,0.969-1.852,1.954-2.293c-2.644-4.686-8.279-2.233-11.498-0.648
		C123.918,22.479,121.577,16.523,118.266,20.694z"/>
	<path fill="#455FAC" d="M32.512,128.452c-0.399-4.194,1.585-9.188,0.981-14.447c-0.479-4.206-1.483-9.428-0.309-13.465
		c-5.344-0.514-5.235,4.4-6.579,7.874c-0.224-4.375,0.309-7.995,0.321-12.159c10.719-4.83,8.91-22.187,15.772-30.866
		c-1.816-0.745-4.987-0.242-6.893,0c0.605-1.265,0.152-3.583,1.301-4.285c17.242,0.278,20.027-13.926,30.218-20.693
		c-11.094-0.283-19.802,3.613-25.273,7.899c3.261-11.771-6.35-17.63-4.945-28.597c-2.663,11.929-12.334,16.729-11.825,29.233
		c0.12,2.776,1.035,5.198,1.967,7.57c0.714,1.767,2.754,4.363,2.972,6.555c0.466,4.975-3.316,9.581-5.272,13.151
		c-3.97-6.204-7.558-12.8-16.092-14.464c5.144,8.618,1.223,24.094,7.226,31.876c1.864,2.42,3.988,3.159,5.925,5.592
		c-0.121,4.474-0.763,8.418-0.993,12.8c-4.358-4.714-10.023-9.9-15.434-12.479c5.713,8.25,3.383,22.024,11.819,27.592
		c2.591,1.725,5.805,2.632,10.192,3.299c1.234,3.251,3.879,6.846,4.92,9.193c-5.834-3.25-11.898-6.289-20.039-7.227
		c2.118,2.132,2.445,5.097,3.607,7.888c2.113,5.06,8.388,13.745,12.819,16.097c5.75,3.052,14.029,1.727,22.671,2.947
		c0.618,2.452,3.898,3.989,3.946,5.927c-5.943,0.084-11.318-0.024-16.094-0.327c2.204,4.405,5.533,7.027,9.188,9.848
		c3.558,2.754,7.341,6.56,11.504,7.891c7.282,2.313,13.098-1.705,17.091-4.272c1.907-1.222,4.062-3.468,5.902-3.952
		c1.331-0.327,3.001,0.096,4.272,0c5.38-0.369,9.69-1.75,13.46-4.596c0-1.313,0-2.625,0-3.95c-4.364,0-8.751,0-13.139,0
		c-0.387,1.263,0.109,3.406-0.975,3.95c-2.07-0.012-3.442-0.726-5.259-0.979c-6.664-6.695-16.401-10.326-22.671-17.425
		c-0.436,4.182,1.821,7.39,1.973,9.864c-2.627-1.433-4.927-3.177-6.905-5.259c0.212-15.542-12.522-18.139-17.067-28.917
		c-0.569,3.327-0.49,7.626,0.642,10.186C35.974,135.067,32.875,132.277,32.512,128.452z"/>
	<path fill="#455FAC" d="M156.037,46.331c-4.769-2.572-10.811-3.878-18.387-3.631c3.443,3.135,6.845,5.683,10.188,9.205
		c5.76,6.088,9.088,13.873,21.998,12.165c1.367,1.93,2.736,3.826,2.626,7.226c-1.609-1.103-2.439-3.026-5.247-2.966
		c-3.879,18.241,13.023,22.823,10.52,40.749c-0.968-3.413-2.325-6.434-3.946-9.205c-3.056,6.664-6.391,16.328-5.579,26.624
		c0.591,7.614,0.766,14.688-4.613,16.745c0-3.702-0.141-7.291-1.628-9.526c-3.517,6.937-10.863,9.891-14.471,15.767
		c-1.969,3.232-1.933,7.101-3.607,10.52c-1.525,3.11-5.635,4.309-8.868,4.932c0.671-2.171,1.355-4.346,1.642-6.898
		c-8.177,2.656-21.22,3.31-19.705,16.745c-3.257,2.777-8.334,3.741-12.172,5.926c1.689,9.095,12.304,1.513,13.812-2.966
		c0.98-0.662,3.087-0.195,4.594-0.329c10.421,7.813,22.114-0.997,33.178-1.316c-4.818-2.168-11.348-4.407-13.465-8.209
		c4.793-1.44,7.741-4.744,11.171-7.546c5.89,0.057,11.499-0.109,16.758-0.679c2.06-7.188,9.266-9.157,13.148-14.772
		c2.358-3.467,2.228-7.286,6.232-8.873c-6.1,0.576-13.346,1.769-17.413,3.276c1.956-2.373,1.296-7.088,3.947-9.188
		c1.422-1.131,3.539-1.337,4.926-1.967c5.054-2.366,8.74-5.683,11.173-10.513c2.935-5.841,2.222-15.668,4.6-23.325
		c-5.019,3.063-9.26,6.943-14.459,9.86c0.247-2.669-0.521-4.297-0.333-6.917c4.309-4.225,10.082-8.013,10.839-15.445
		c0.877-8.43-3.746-16.801-5.913-23.633c-2.729,4.157-5.92,7.855-10.185,10.507c-6.361-8.691,2.922-21.619-2.95-29.232
		c-1.777-2.33-5.09-3.178-7.23-5.265c-2.894-2.832-5.525-7.632-8.219-10.519C156.177,29.373,155.904,37.64,156.037,46.331z"/>
	<path fill="#455FAC" d="M103.806,172.159c5.745-0.5,9.582-2.91,12.813-5.919C111.11,163.614,102.45,165.37,103.806,172.159z"/>
	<path fill="#455FAC" d="M77.854,183.32c-0.182,1.198-0.799,1.966-0.338,2.96c2.245,1.156,9.241,0.884,12.151-0.994
		c4.388,2.108,12.567,2.119,12.177-4.259c-1.652-0.211-4.157,0.436-5.271-0.32c5.932-2.948,11.749-5.999,18.738-7.893
		C100,173.504,90.455,179.95,77.854,183.32z"/>
	<path fill="#455FAC" d="M67.668,27.266c0,0.817,0.557,0.472,1.646,0c-0.199-0.303-0.386-0.588,0-0.642
		c-0.089-1.362-1.313-1.542-2.299-1.985c2.22-4.552,8.424-1.943,11.5,0c0.248-4.793,6.875-11.626,6.899-2.3
		c2.536,1.052,4.08,0.695,6.905,1.979c-2.971,2.076-8.884,2.391-10.852,1.967c0.83,1.477,1.38,3.636,0.333,5.26
		c-6.439,2.627-10.882-5.351-15.446-0.333c0.696,0.15,3.021,0.393,4.587,1.312c-0.259,0.944,0.474,0.854,0.334,1.647
		c-1.719,3.188-7.384,2.91-7.881-1.332c-1.864-0.194-2.936,1.429-4.266,2.65c0.962,1.121,2.161,0.085,3.608,1.296
		c0,0.563,0,1.101,0,1.671c-1.72,1.767-3.438,0.72-5.587,0.628c-4.429-0.157-7.643,3.928-12.806,5.593
		c2.259-4.836,5.853-8.528,10.18-8.873c0.896-1.393,2.972-1.633,2.954-3.934c-1.313-0.798-5.349-1.343-5.248-4.605
		C57.852,24.821,62.984,31.031,67.668,27.266z"/>
	<path fill="#455FAC" d="M37.438,137.324c-1.132-2.56-1.209-6.857-0.642-10.187c4.545,10.78,17.278,13.375,17.067,28.918
		c1.979,2.081,4.278,3.827,6.905,5.259c-0.151-2.475-2.409-5.683-1.973-9.864c6.27,7.1,16.008,10.729,22.671,17.425
		c1.816,0.252,3.189,0.968,5.259,0.979c1.083-0.544,0.588-2.688,0.975-3.952c4.388,0,8.775,0,13.139,0c0,1.325,0,2.638,0,3.952
		c-3.771,2.844-8.081,4.225-13.46,4.595c-1.271,0.097-2.941-0.328-4.272,0c-1.84,0.483-3.994,2.729-5.901,3.951
		c-3.994,2.567-9.81,6.585-17.091,4.274c-4.164-1.333-7.946-5.139-11.504-7.892c-3.655-2.82-6.984-5.441-9.188-9.849
		c4.775,0.303,10.151,0.412,16.094,0.327c-0.048-1.938-3.33-3.475-3.946-5.925c-8.643-1.222-16.921,0.104-22.671-2.947
		c-4.43-2.354-10.706-11.039-12.819-16.098c-1.162-2.791-1.489-5.755-3.607-7.888c8.14,0.938,14.205,3.977,20.039,7.227
		c-1.041-2.348-3.686-5.943-4.92-9.194c-4.388-0.665-7.602-1.573-10.192-3.297c-8.437-5.569-6.106-19.343-11.819-27.593
		c5.411,2.578,11.075,7.765,15.434,12.479c0.23-4.381,0.872-8.325,0.993-12.8c-1.937-2.433-4.061-3.171-5.925-5.592
		c-6.004-7.783-2.082-23.258-7.226-31.876c8.534,1.665,12.122,8.261,16.092,14.464c1.956-3.57,5.738-8.177,5.272-13.151
		c-0.217-2.192-2.257-4.788-2.972-6.555c-0.931-2.372-1.847-4.794-1.967-7.57c-0.51-12.504,9.162-17.304,11.825-29.233
		c-1.405,10.967,8.207,16.826,4.945,28.597c5.471-4.285,14.179-8.182,25.273-7.899c-10.191,6.769-12.977,20.971-30.218,20.693
		c-1.149,0.702-0.696,3.02-1.301,4.285c1.905-0.242,5.077-0.745,6.893,0c-6.863,8.679-5.053,26.037-15.772,30.866
		c-0.011,4.164-0.544,7.784-0.321,12.16c1.344-3.474,1.235-8.389,6.579-7.875c-1.175,4.037-0.169,9.259,0.309,13.466
		c0.604,5.259-1.38,10.252-0.981,14.446C32.875,132.277,35.974,135.067,37.438,137.324z"/>
</g>
</svg>
